<svg width="569" height="75" viewBox="0 0 569 75" fill="none" xmlns="http://www.w3.org/2000/svg">
<path d="M23.7969 67.5625C25.0781 67.5625 26.3906 67.4531 27.7344 67.2344C29.0781 67.0156 30.1719 66.75 31.0156 66.4375V72.4844C30.1094 72.8906 28.8438 73.2344 27.2188 73.5156C25.625 73.7969 24.0625 73.9375 22.5312 73.9375C19.8125 73.9375 17.3438 73.4688 15.125 72.5312C12.9062 71.5625 11.125 69.9375 9.78125 67.6562C8.46875 65.375 7.8125 62.2188 7.8125 58.1875V27.7188H0.5V23.9219L7.85938 20.875L10.9531 9.71875H15.6406V21.625H30.6875V27.7188H15.6406V57.9531C15.6406 61.1719 16.375 63.5781 17.8438 65.1719C19.3438 66.7656 21.3281 67.5625 23.7969 67.5625ZM56.4031 20.6875C60.7781 20.6875 64.5281 21.6562 67.6531 23.5938C70.7781 25.5312 73.1688 28.25 74.825 31.75C76.4813 35.2188 77.3094 39.2812 77.3094 43.9375V48.7656H41.825C41.9188 54.7969 43.4188 59.3906 46.325 62.5469C49.2313 65.7031 53.325 67.2812 58.6063 67.2812C61.8563 67.2812 64.7313 66.9844 67.2313 66.3906C69.7313 65.7969 72.325 64.9219 75.0125 63.7656V70.6094C72.4188 71.7656 69.8406 72.6094 67.2781 73.1406C64.7469 73.6719 61.7469 73.9375 58.2781 73.9375C53.3406 73.9375 49.0281 72.9375 45.3406 70.9375C41.6844 68.9062 38.8406 65.9375 36.8094 62.0312C34.7781 58.125 33.7625 53.3438 33.7625 47.6875C33.7625 42.1562 34.6844 37.375 36.5281 33.3438C38.4031 29.2812 41.0281 26.1562 44.4031 23.9688C47.8094 21.7812 51.8094 20.6875 56.4031 20.6875ZM56.3094 27.0625C52.1531 27.0625 48.8406 28.4219 46.3719 31.1406C43.9031 33.8594 42.4344 37.6562 41.9656 42.5312H69.1531C69.1219 39.4688 68.6375 36.7812 67.7 34.4688C66.7938 32.125 65.4031 30.3125 63.5281 29.0312C61.6531 27.7188 59.2469 27.0625 56.3094 27.0625ZM141.509 20.6875C147.166 20.6875 151.431 22.1719 154.306 25.1406C157.181 28.0781 158.619 32.8125 158.619 39.3438V73H150.931V39.7188C150.931 35.5625 150.025 32.4531 148.213 30.3906C146.431 28.2969 143.775 27.25 140.244 27.25C135.275 27.25 131.666 28.6875 129.416 31.5625C127.166 34.4375 126.041 38.6719 126.041 44.2656V73H118.306V39.7188C118.306 36.9375 117.9 34.625 117.088 32.7812C116.306 30.9375 115.119 29.5625 113.525 28.6562C111.963 27.7188 109.978 27.25 107.572 27.25C104.166 27.25 101.431 27.9531 99.3688 29.3594C97.3063 30.7656 95.8063 32.8594 94.8688 35.6406C93.9625 38.3906 93.5094 41.7812 93.5094 45.8125V73H85.7281V21.625H92.0094L93.1813 28.8906H93.6031C94.6344 27.1094 95.9313 25.6094 97.4938 24.3906C99.0563 23.1719 100.806 22.25 102.744 21.625C104.681 21 106.744 20.6875 108.931 20.6875C112.838 20.6875 116.103 21.4219 118.728 22.8906C121.384 24.3281 123.306 26.5312 124.494 29.5H124.916C126.603 26.5312 128.916 24.3281 131.853 22.8906C134.791 21.4219 138.009 20.6875 141.509 20.6875ZM189.022 20.7812C195.147 20.7812 199.694 22.1562 202.663 24.9062C205.631 27.6562 207.116 32.0469 207.116 38.0781V73H201.444L199.944 65.4062H199.569C198.131 67.2812 196.631 68.8594 195.069 70.1406C193.506 71.3906 191.694 72.3438 189.631 73C187.6 73.625 185.1 73.9375 182.131 73.9375C179.006 73.9375 176.225 73.3906 173.788 72.2969C171.381 71.2031 169.475 69.5469 168.069 67.3281C166.694 65.1094 166.006 62.2969 166.006 58.8906C166.006 53.7656 168.038 49.8281 172.1 47.0781C176.163 44.3281 182.35 42.8281 190.663 42.5781L199.522 42.2031V39.0625C199.522 34.625 198.569 31.5156 196.663 29.7344C194.756 27.9531 192.069 27.0625 188.6 27.0625C185.913 27.0625 183.35 27.4531 180.913 28.2344C178.475 29.0156 176.163 29.9375 173.975 31L171.584 25.0938C173.897 23.9062 176.553 22.8906 179.553 22.0469C182.553 21.2031 185.709 20.7812 189.022 20.7812ZM199.428 47.6875L191.6 48.0156C185.194 48.2656 180.678 49.3125 178.053 51.1562C175.428 53 174.116 55.6094 174.116 58.9844C174.116 61.9219 175.006 64.0938 176.788 65.5C178.569 66.9062 180.928 67.6094 183.866 67.6094C188.428 67.6094 192.163 66.3438 195.069 63.8125C197.975 61.2812 199.428 57.4844 199.428 52.4219V47.6875ZM242.675 20.6875C248.769 20.6875 253.378 22.1875 256.503 25.1875C259.628 28.1562 261.191 32.9375 261.191 39.5312V73H253.503V40.0469C253.503 35.7656 252.519 32.5625 250.55 30.4375C248.613 28.3125 245.628 27.25 241.597 27.25C235.909 27.25 231.909 28.8594 229.597 32.0781C227.284 35.2969 226.128 39.9688 226.128 46.0938V73H218.347V21.625H224.628L225.8 29.0312H226.222C227.316 27.2188 228.706 25.7031 230.394 24.4844C232.081 23.2344 233.972 22.2969 236.066 21.6719C238.159 21.0156 240.363 20.6875 242.675 20.6875ZM333.266 19.6094C339.203 19.6094 343.688 21.1406 346.719 24.2031C349.781 27.2344 351.312 32.1094 351.312 38.8281V73H336.969V42.3906C336.969 38.6406 336.328 35.8125 335.047 33.9062C333.766 32 331.781 31.0469 329.094 31.0469C325.312 31.0469 322.625 32.4062 321.031 35.125C319.438 37.8125 318.641 41.6719 318.641 46.7031V73H304.344V42.3906C304.344 39.8906 304.062 37.7969 303.5 36.1094C302.938 34.4219 302.078 33.1562 300.922 32.3125C299.766 31.4688 298.281 31.0469 296.469 31.0469C293.812 31.0469 291.719 31.7188 290.188 33.0625C288.688 34.375 287.609 36.3281 286.953 38.9219C286.328 41.4844 286.016 44.625 286.016 48.3438V73H271.719V20.5938H282.641L284.562 27.2969H285.359C286.422 25.4844 287.75 24.0156 289.344 22.8906C290.969 21.7656 292.75 20.9375 294.688 20.4062C296.625 19.875 298.594 19.6094 300.594 19.6094C304.438 19.6094 307.688 20.2344 310.344 21.4844C313.031 22.7344 315.094 24.6719 316.531 27.2969H317.797C319.359 24.6094 321.562 22.6562 324.406 21.4375C327.281 20.2188 330.234 19.6094 333.266 19.6094ZM382.841 19.6094C387.684 19.6094 391.856 20.5469 395.356 22.4219C398.856 24.2656 401.559 26.9531 403.466 30.4844C405.372 34.0156 406.325 38.3281 406.325 43.4219V50.3594H372.528C372.684 54.3906 373.888 57.5625 376.138 59.875C378.419 62.1562 381.575 63.2969 385.606 63.2969C388.95 63.2969 392.013 62.9531 394.794 62.2656C397.575 61.5781 400.434 60.5469 403.372 59.1719V70.2344C400.778 71.5156 398.059 72.4531 395.216 73.0469C392.403 73.6406 388.981 73.9375 384.95 73.9375C379.7 73.9375 375.044 72.9688 370.981 71.0312C366.95 69.0938 363.778 66.1406 361.466 62.1719C359.184 58.2031 358.044 53.2031 358.044 47.1719C358.044 41.0469 359.075 35.9531 361.138 31.8906C363.231 27.7969 366.138 24.7344 369.856 22.7031C373.575 20.6406 377.903 19.6094 382.841 19.6094ZM382.934 29.7812C380.153 29.7812 377.841 30.6719 375.997 32.4531C374.184 34.2344 373.138 37.0312 372.856 40.8438H392.919C392.888 38.7188 392.497 36.8281 391.747 35.1719C391.028 33.5156 389.934 32.2031 388.466 31.2344C387.028 30.2656 385.184 29.7812 382.934 29.7812ZM429.744 73.9375C423.9 73.9375 419.134 71.6562 415.447 67.0938C411.791 62.5 409.962 55.7656 409.962 46.8906C409.962 37.9219 411.822 31.1406 415.541 26.5469C419.259 21.9219 424.119 19.6094 430.119 19.6094C432.619 19.6094 434.822 19.9531 436.728 20.6406C438.634 21.3281 440.275 22.25 441.65 23.4062C443.056 24.5625 444.244 25.8594 445.212 27.2969H445.681C445.494 26.2969 445.259 24.8281 444.978 22.8906C444.728 20.9219 444.603 18.9062 444.603 16.8438V0.0625H458.947V73H447.978L445.212 66.2031H444.603C443.697 67.6406 442.556 68.9531 441.181 70.1406C439.837 71.2969 438.228 72.2188 436.353 72.9062C434.478 73.5938 432.275 73.9375 429.744 73.9375ZM434.759 62.5469C438.666 62.5469 441.416 61.3906 443.009 59.0781C444.634 56.7344 445.494 53.2188 445.587 48.5312V46.9844C445.587 41.8906 444.806 38 443.244 35.3125C441.681 32.5938 438.775 31.2344 434.525 31.2344C431.369 31.2344 428.9 32.5938 427.119 35.3125C425.337 38.0312 424.447 41.9531 424.447 47.0781C424.447 52.2031 425.337 56.0625 427.119 58.6562C428.931 61.25 431.478 62.5469 434.759 62.5469ZM483.397 20.5938V73H469.1V20.5938H483.397ZM476.272 0.0625C478.397 0.0625 480.225 0.5625 481.756 1.5625C483.288 2.53125 484.053 4.35938 484.053 7.04688C484.053 9.70312 483.288 11.5469 481.756 12.5781C480.225 13.5781 478.397 14.0781 476.272 14.0781C474.116 14.0781 472.272 13.5781 470.741 12.5781C469.241 11.5469 468.491 9.70312 468.491 7.04688C468.491 4.35938 469.241 2.53125 470.741 1.5625C472.272 0.5625 474.116 0.0625 476.272 0.0625ZM515.112 19.5156C522.144 19.5156 527.534 21.0469 531.284 24.1094C535.034 27.1719 536.909 31.8281 536.909 38.0781V73H526.925L524.159 65.875H523.784C522.284 67.75 520.753 69.2812 519.191 70.4688C517.628 71.6562 515.831 72.5312 513.8 73.0938C511.769 73.6562 509.3 73.9375 506.394 73.9375C503.3 73.9375 500.519 73.3438 498.05 72.1562C495.612 70.9688 493.691 69.1562 492.284 66.7188C490.878 64.25 490.175 61.125 490.175 57.3438C490.175 51.7812 492.128 47.6875 496.034 45.0625C499.941 42.4062 505.8 40.9375 513.612 40.6562L522.706 40.375V38.0781C522.706 35.3281 521.987 33.3125 520.55 32.0312C519.112 30.75 517.112 30.1094 514.55 30.1094C512.019 30.1094 509.534 30.4688 507.097 31.1875C504.659 31.9062 502.222 32.8125 499.784 33.9062L495.05 24.25C497.831 22.7812 500.941 21.625 504.378 20.7812C507.847 19.9375 511.425 19.5156 515.112 19.5156ZM522.706 48.7188L517.175 48.9062C512.55 49.0312 509.331 49.8594 507.519 51.3906C505.737 52.9219 504.847 54.9375 504.847 57.4375C504.847 59.625 505.487 61.1875 506.769 62.125C508.05 63.0312 509.722 63.4844 511.784 63.4844C514.847 63.4844 517.425 62.5781 519.519 60.7656C521.644 58.9531 522.706 56.375 522.706 53.0312V48.7188Z" fill="black"/>
<path d="M546.688 64.0625C546.688 60.1458 547.75 57.3958 549.875 55.8125C552.042 54.2292 554.646 53.4375 557.688 53.4375C560.646 53.4375 563.188 54.2292 565.312 55.8125C567.479 57.3958 568.562 60.1458 568.562 64.0625C568.562 67.8125 567.479 70.5208 565.312 72.1875C563.188 73.8542 560.646 74.6875 557.688 74.6875C554.646 74.6875 552.042 73.8542 549.875 72.1875C547.75 70.5208 546.688 67.8125 546.688 64.0625Z" fill="#0051FF"/>
</svg>
